<svg xmlns="http://www.w3.org/2000/svg" viewBox="0 0 626.47 187.52"><defs><style>.a26fbe36-de5d-4f8b-86de-1bf68e4a0b2a{fill:#002b49;}</style></defs><g id="b00f8214-1fc6-4862-8e10-f52ed05cb227" data-name="Layer 2"><g id="ba7170f0-9760-49ce-8db6-072899e974c6" data-name="Layer 1"><path class="a26fbe36-de5d-4f8b-86de-1bf68e4a0b2a" d="M619.2,152.67l7.27,30.08s-13.53,4.77-26.82,4.77c-29.33,0-52.14-16.3-52.14-41.87V90H517.17V58.66h30.34V25.57H580.6V58.66h45.87V90H580.6v44.12c0,17.8,10.78,21.81,21.31,21.81A53.35,53.35,0,0,0,619.2,152.67Zm-97.26-17.8V184H488.85a148.27,148.27,0,0,0-10.31-17.52c-11.26,10.17-28.58,21-50.11,21-35.6,0-50.14-22.07-50.14-42.62s14.54-42.62,50.14-42.62c39.86,0,60.42,36.1,60.42,36.1v-2.26c0-26.57-23.07-49.38-55.16-49.38-21.81-.75-43.11,12.53-43.11,12.53L380.8,69.94s24.57-14.79,58.91-14.79C489.6,55.15,521.94,89.25,521.94,134.87Zm-93,24.07c13.2,0,24.63-8,31.32-13.94-9-8.05-19.61-14.15-31.32-14.15s-18.55,6-18.55,14.05S417.15,158.94,428.93,158.94ZM203.31,90V58.66c-47.13,0-96.52,38.61-101.53,85.74C95.51,97.27,47.63,58.66,0,58.66V90c42.37,0,76,41.36,76,94H127.6C127.6,131.36,161.19,90,203.31,90Zm44.12-31.34H214.34V184h33.09Zm-16-15.54a21.29,21.29,0,0,0,21.05-21.56C252.44,9.78,242.92,0,231.39,0a21.67,21.67,0,0,0-22.06,21.56C209.33,33.59,218.85,43.12,231.39,43.12Zm112.3,112.81c-10.52,0-21.3-4-21.3-21.81V90h45.87V58.66H322.39V25.57H289.3V58.66H259V90H289.3v55.65c0,25.57,22.81,41.87,52.14,41.87,13.29,0,26.82-4.77,26.82-4.77L361,152.67A53.37,53.37,0,0,1,343.69,155.93Z"/></g></g></svg>